<?xml version="1.0" encoding="UTF-8"?>
<svg id="_レイヤー_1" data-name="レイヤー_1" xmlns="http://www.w3.org/2000/svg" version="1.1" viewBox="0 0 91.84 88.15">
  <!-- Generator: Adobe Illustrator 29.6.1, SVG Export Plug-In . SVG Version: 2.1.1 Build 9)  -->
  <defs>
    <style>
      .st0 {
        fill: #f7931e;
      }
    </style>
  </defs>
  <path class="st0" d="M45.92,3c1.83,0,4.09.94,4.95,3.6l7.06,21.72.67,2.07h25.02c2.79,0,4.38,1.86,4.95,3.6.56,1.74.36,4.18-1.89,5.82l-18.48,13.43-1.76,1.28.67,2.07,7.06,21.72c.72,2.21-.12,3.84-.68,4.61-1,1.38-2.65,2.24-4.3,2.24-1.07,0-2.09-.35-3.03-1.03l-18.48-13.43-1.76-1.28-1.76,1.28-18.48,13.43c-.94.68-1.96,1.03-3.03,1.03-1.65,0-3.3-.86-4.3-2.24-.56-.77-1.4-2.4-.68-4.61l7.06-21.72.67-2.07-1.76-1.28-18.48-13.43c-2.26-1.64-2.46-4.08-1.89-5.82.56-1.74,2.16-3.6,4.95-3.6h25.02l.67-2.07,7.06-21.72c.86-2.65,3.12-3.6,4.95-3.6M45.92,0c-3.29,0-6.57,1.89-7.8,5.67l-7.06,21.72H8.22c-7.95,0-11.25,10.17-4.82,14.84l18.48,13.43-7.06,21.72c-1.87,5.76,2.7,10.78,7.83,10.78,1.6,0,3.26-.49,4.79-1.6l18.48-13.43,18.48,13.43c1.53,1.11,3.19,1.6,4.79,1.6,5.13,0,9.7-5.02,7.83-10.78l-7.06-21.72,18.48-13.43c6.43-4.67,3.13-14.84-4.82-14.84h-22.84l-7.06-21.72c-1.23-3.78-4.51-5.67-7.8-5.67h0Z"/>
</svg>