<?xml version="1.0" encoding="UTF-8"?>
<svg id="_レイヤー_1" data-name="レイヤー_1" xmlns="http://www.w3.org/2000/svg" version="1.1" viewBox="0 0 91.84 88.15">
  <!-- Generator: Adobe Illustrator 29.6.1, SVG Export Plug-In . SVG Version: 2.1.1 Build 9)  -->
  <defs>
    <style>
      .st0 {
        fill: #f7931e;
      }
    </style>
  </defs>
  <path class="st0" d="M22.65,87.65c-2.47,0-4.83-1.22-6.32-3.27-1.45-2-1.82-4.43-1.03-6.85l7.17-22.07L3.69,41.83c-2.75-2-3.85-5.38-2.8-8.61,1.05-3.23,3.93-5.32,7.33-5.32h23.2l7.17-22.07c1.05-3.23,3.93-5.32,7.33-5.32s6.28,2.09,7.33,5.32l7.17,22.07h23.2c3.4,0,6.28,2.09,7.33,5.32,1.05,3.23-.05,6.61-2.8,8.61l-18.77,13.64,7.17,22.07c.79,2.42.42,4.85-1.03,6.85-1.49,2.05-3.85,3.27-6.32,3.27-1.59,0-3.14-.52-4.5-1.51l-18.77-13.64-18.77,13.64c-1.36.99-2.91,1.51-4.5,1.51h0Z"/>
  <path class="st0" d="M45.92,1c2.53,0,5.66,1.31,6.85,4.98l7.06,21.72.22.69h23.57c3.86,0,6.07,2.57,6.85,4.98.78,2.41.5,5.79-2.62,8.05l-18.48,13.43-.59.43.22.69,7.06,21.72c.74,2.26.39,4.54-.96,6.4-1.37,1.89-3.64,3.07-5.92,3.07-1.48,0-2.93-.49-4.21-1.41l-18.48-13.43-.59-.43-.59.43-18.48,13.43c-1.27.92-2.73,1.41-4.21,1.41-2.28,0-4.54-1.17-5.92-3.06-1.36-1.87-1.7-4.14-.96-6.4l7.06-21.72.22-.69-.59-.43L3.99,41.42c-3.12-2.27-3.4-5.65-2.62-8.05.78-2.41,2.99-4.98,6.85-4.98h23.57l.22-.69,7.06-21.72c1.19-3.67,4.32-4.98,6.85-4.98M45.92,0c-3.29,0-6.57,1.89-7.8,5.67l-7.06,21.72H8.22c-7.95,0-11.25,10.17-4.82,14.84l18.48,13.43-7.06,21.72c-1.87,5.76,2.7,10.78,7.83,10.78,1.6,0,3.26-.49,4.79-1.6l18.48-13.43,18.48,13.43c1.53,1.11,3.19,1.6,4.79,1.6,5.13,0,9.7-5.02,7.83-10.78l-7.06-21.72,18.48-13.43c6.43-4.67,3.13-14.84-4.82-14.84h-22.84l-7.06-21.72c-1.23-3.78-4.51-5.67-7.8-5.67h0Z"/>
</svg>